PathFileType	4	(X/Y/Z)	/Users/itak/Documents/Research/Walk-IL/dataset/trc/00010_00004.trc
DataRate	CameraRate	NumFrames	NumMarkers	Units	OrigDataRate	OrigDataStartFrame	OrigNumFrames
100.000000	100.000000	4	53	mm	100.000000	0	624
Frame#	Time	RPSI			LPSI			L3			STRN			T10			C7			CLAV			RBAK			LBAK			LSHO			LUPA			LAEL			LAOL			LWTS			LWPS			LFRA			LHPS			LHTS			RSHO			RUPA			RAEL			RAOL			RWTS			RWPS			RFRA			RIFD			RHTS			RHPS			RBHD			LFHD			RFHD			LBHD			LHIP			RHIP			RASI			LASI			LKNE			LTHI			LANK			LTIP			LTOE			LMT1			LMT5			LHEE			RKNE			RTHI			RANK			RTIP			RTOE			RMT1			RMT5			RHEE			LIFD			
		X1	Y1	Z1	X2	Y2	Z2	X3	Y3	Z3	X4	Y4	Z4	X5	Y5	Z5	X6	Y6	Z6	X7	Y7	Z7	X8	Y8	Z8	X9	Y9	Z9	X10	Y10	Z10	X11	Y11	Z11	X12	Y12	Z12	X13	Y13	Z13	X14	Y14	Z14	X15	Y15	Z15	X16	Y16	Z16	X17	Y17	Z17	X18	Y18	Z18	X19	Y19	Z19	X20	Y20	Z20	X21	Y21	Z21	X22	Y22	Z22	X23	Y23	Z23	X24	Y24	Z24	X25	Y25	Z25	X26	Y26	Z26	X27	Y27	Z27	X28	Y28	Z28	X29	Y29	Z29	X30	Y30	Z30	X31	Y31	Z31	X32	Y32	Z32	X33	Y33	Z33	X34	Y34	Z34	X35	Y35	Z35	X36	Y36	Z36	X37	Y37	Z37	X38	Y38	Z38	X39	Y39	Z39	X40	Y40	Z40	X41	Y41	Z41	X42	Y42	Z42	X43	Y43	Z43	X44	Y44	Z44	X45	Y45	Z45	X46	Y46	Z46	X47	Y47	Z47	X48	Y48	Z48	X49	Y49	Z49	X50	Y50	Z50	X51	Y51	Z51	X52	Y52	Z52	X53	Y53	Z53	

1	0	987.6900634765625	1054.324340820312	-226.7580718994141	972.0222778320312	1047.638793945312	-389.9644165039062	972.2071533203125	1107.683837890625	-316.18212890625	1184.2587890625	1312.422241210938	-328.4278259277344	939.5863647460938	1253.734252929688	-314.8870544433594	970.8953247070312	1522.967651367188	-322.2586975097656	1135.357543945312	1435.861206054688	-329.018310546875	930.424072265625	1382.77734375	-241.9204711914062	949.318603515625	1481.146606445312	-419.5196533203125	1046.526123046875	1494.261840820312	-499.6239624023438	1018.980163574219	1368.0732421875	-576.2348022460938	1034.505737304688	1148.05908203125	-596.9031372070312	983.6287841796875	1135.06640625	-505.94189453125	1128.927001953125	897.9337768554688	-539.1182250976562	1052.3232421875	881.8797607421875	-581.2490844726562	1051.064331054688	1032.591918945312	-600.9793090820312	1086.900268554688	792.7129516601562	-580.5946044921875	1151.574340820312	804.5740356445312	-553.0418090820312	1059.672607421875	1510.001708984375	-153.6260833740234	1052.99658203125	1436.63720703125	-81.37360382080078	1025.98681640625	1167.818969726562	-60.3304443359375	1021.939392089844	1139.604125976562	-156.5462799072266	1158.1845703125	911.2042236328125	-90.28931427001953	1091.544067382812	896.45166015625	-26.65666770935059	1040.568115234375	1093.280151367188	-45.08160400390625	1177.64599609375	722.3847045898438	-96.58310699462891	1189.873168945312	800.7508544921875	-71.93281555175781	1133.1875	797.0922241210938	-23.52436065673828	1116.917358398438	1696.818237304688	-237.2964019775391	1114.84716796875	1727.399291992188	-448.0228576660156	1195.505249023438	1726.627563476562	-391.5485229492188	990.6940307617188	1699.932861328125	-316.88525390625	1058.539428710938	950.4039306640625	-504.4069519042969	1110.906982421875	948.7954711914062	-135.1493377685547	1205.7490234375	980.758056640625	-217.3828430175781	1180.501220703125	998.2611694335938	-452.0676574707031	1090.693725585938	504.5964050292969	-465.4423522949219	1073.437133789062	640.1790161132812	-499.3627014160156	980.6478881835938	30.98978996276855	-473.4085998535156	1003.477661132812	277.1182250976562	-486.7986450195312	1203.310180664062	25.78319358825684	-411.53515625	1143.642578125	36.24466705322266	-394.1063842773438	1105.123168945312	27.20949745178223	-494.1606750488281	912.9144897460938	36.46884536743164	-418.4453125	1090.619262695312	511.9710693359375	-173.3970642089844	1125.634643554688	780.87109375	-137.2366638183594	962.4081420898438	35.66691207885742	-180.4652404785156	1058.17236328125	392.5650939941406	-168.9659881591797	1193.131225585938	30.09927749633789	-230.7605438232422	1128.318115234375	36.46750640869141	-258.3759460449219	1112.035888671875	30.90839195251465	-162.1044921875	904.487060546875	36.62843322753906	-222.8883361816406	1160.52734375	714.011474609375	-522.75244140625	
2	0.01	987.6190795898438	1054.33544921875	-226.7994537353516	972.0071411132812	1047.6337890625	-389.98681640625	972.0919799804688	1107.630981445312	-316.2041015625	1184.222900390625	1312.428833007812	-328.4096984863281	939.5814208984375	1253.744750976562	-314.9256286621094	970.8767700195312	1522.982666015625	-322.3206176757812	1135.343383789062	1435.910400390625	-329.0555114746094	930.3956298828125	1382.788940429688	-241.9819793701172	949.3168334960938	1481.162963867188	-419.5914611816406	1046.553344726562	1494.282592773438	-499.6501770019531	1019.050659179688	1368.110961914062	-576.3010864257812	1034.593017578125	1148.107299804688	-596.992919921875	983.69482421875	1135.080688476562	-506.0285034179688	1129.032348632812	897.96337890625	-539.1871337890625	1052.42529296875	881.9031372070312	-581.3423461914062	1051.168212890625	1032.6279296875	-601.0707397460938	1087.06201171875	792.721435546875	-580.7164306640625	1151.714477539062	804.6743774414062	-553.1510620117188	1059.607788085938	1510.008911132812	-153.6658477783203	1052.884521484375	1436.645263671875	-81.42186737060547	1025.891357421875	1167.820922851562	-60.38785934448242	1021.825927734375	1139.60693359375	-156.6179656982422	1158.133544921875	911.19677734375	-90.28986358642578	1091.472290039062	896.4517822265625	-26.67984199523926	1040.460571289062	1093.278930664062	-45.13756561279297	1177.52978515625	722.427490234375	-96.68437957763672	1189.737670898438	800.7723999023438	-72.02567291259766	1133.104614257812	797.0982055664062	-23.54689788818359	1116.83349609375	1696.776977539062	-237.2915649414062	1114.843139648438	1727.39111328125	-448.0453796386719	1195.492431640625	1726.626953125	-391.5519409179688	990.6798706054688	1699.921508789062	-316.9156494140625	1058.538208007812	950.3955078125	-504.4243774414062	1110.790893554688	948.8087768554688	-135.1567230224609	1205.68603515625	980.7442016601562	-217.3527526855469	1180.479614257812	998.2344360351562	-452.0416564941406	1090.709594726562	504.5955200195312	-465.4441833496094	1073.524291992188	640.15234375	-499.36767578125	980.6340942382812	30.98541641235352	-473.405517578125	1003.494689941406	277.1153564453125	-486.8065185546875	1203.3115234375	25.78524017333984	-411.5358581542969	1143.644653320312	36.24937057495117	-394.1106872558594	1105.121826171875	27.20853042602539	-494.1589660644531	912.91796875	36.47194671630859	-418.4530029296875	1090.605102539062	511.9808349609375	-173.402587890625	1125.595703125	780.8799438476562	-137.2405395507812	962.4046020507812	35.66526412963867	-180.4671173095703	1058.160766601562	392.5658874511719	-168.9741516113281	1193.1298828125	30.09915733337402	-230.7605895996094	1128.318359375	36.46900177001953	-258.3807067871094	1112.034545898438	30.90888404846191	-162.1035766601562	904.4901733398438	36.62506484985352	-222.8908233642578	1160.645141601562	713.9569702148438	-522.8114624023438	
3	0.02	987.5398559570312	1054.346801757812	-226.8532257080078	971.9903564453125	1047.626586914062	-390.0187072753906	971.98876953125	1107.581665039062	-316.235107421875	1184.174682617188	1312.437133789062	-328.3851318359375	939.5720825195312	1253.754150390625	-314.9728698730469	970.8480224609375	1523.000732421875	-322.3963012695312	1135.323608398438	1435.972778320312	-329.0990295410156	930.3624877929688	1382.802734375	-242.0590667724609	949.3143920898438	1481.183837890625	-419.678955078125	1046.585205078125	1494.3115234375	-499.6832885742188	1019.135131835938	1368.15771484375	-576.379150390625	1034.7021484375	1148.168212890625	-597.1018676757812	983.7752685546875	1135.099487304688	-506.1411437988281	1129.164916992188	897.9986572265625	-539.2721557617188	1052.558227539062	881.92724609375	-581.46435546875	1051.299682617188	1032.68359375	-601.1898803710938	1087.265258789062	792.7417602539062	-580.8692016601562	1151.88720703125	804.7870483398438	-553.2767944335938	1059.524047851562	1510.019409179688	-153.7109985351562	1052.742309570312	1436.654418945312	-81.48159027099609	1025.766479492188	1167.821899414062	-60.46084213256836	1021.697570800781	1139.610717773438	-156.7011413574219	1158.06591796875	911.1897583007812	-90.29415893554688	1091.380249023438	896.451904296875	-26.71579742431641	1040.335693359375	1093.275634765625	-45.20362854003906	1177.388305664062	722.4777221679688	-96.81399536132812	1189.5771484375	800.7899169921875	-72.126953125	1132.990966796875	797.1024169921875	-23.59052467346191	1116.723510742188	1696.73095703125	-237.2842254638672	1114.839233398438	1727.380981445312	-448.0695495605469	1195.477294921875	1726.627685546875	-391.5510864257812	990.6314697265625	1699.908325195312	-316.971923828125	1058.534057617188	950.3872680664062	-504.4468383789062	1110.66357421875	948.8228759765625	-135.1642303466797	1205.610595703125	980.7312622070312	-217.3213653564453	1180.452026367188	998.2039184570312	-452.0092468261719	1090.7314453125	504.5973815917969	-465.4489135742188	1073.644409179688	640.1204833984375	-499.3695068359375	980.6212158203125	30.98214912414551	-473.402587890625	1003.517028808594	277.1106872558594	-486.8168029785156	1203.313110351562	25.78774070739746	-411.5367126464844	1143.646728515625	36.25484466552734	-394.1150512695312	1105.1201171875	27.20779800415039	-494.1575927734375	912.9212036132812	36.47478866577148	-418.4602966308594	1090.58935546875	511.9932556152344	-173.4067687988281	1125.542724609375	780.8921508789062	-137.244140625	962.399169921875	35.66623306274414	-180.4707489013672	1058.147827148438	392.5675964355469	-168.9839172363281	1193.128662109375	30.09854507446289	-230.7604064941406	1128.318237304688	36.47021484375	-258.384521484375	1112.031494140625	30.9091854095459	-162.1034393310547	904.4934692382812	36.62370300292969	-222.8937530517578	1160.780639648438	713.8878784179688	-522.87890625	
4	0.03	987.4599609375	1054.357055664062	-226.9172210693359	971.9719848632812	1047.616821289062	-390.0603637695312	971.9127197265625	1107.543579101562	-316.2755126953125	1184.1142578125	1312.446411132812	-328.3539733886719	939.5563354492188	1253.760375976562	-315.0269775390625	970.8073120117188	1523.020629882812	-322.481689453125	1135.297485351562	1436.045532226562	-329.1451110839844	930.3275146484375	1382.818115234375	-242.1484527587891	949.311279296875	1481.20849609375	-419.7772216796875	1046.619873046875	1494.348510742188	-499.7220458984375	1019.228149414062	1368.210693359375	-576.4635009765625	1034.82861328125	1148.239868164062	-597.224365234375	983.8626708984375	1135.122314453125	-506.2759704589844	1129.317504882812	898.0355834960938	-539.3678588867188	1052.718139648438	881.94921875	-581.6126098632812	1051.453247070312	1032.7607421875	-601.3331298828125	1087.500610351562	792.7774047851562	-581.0462646484375	1152.080200195312	804.8948364257812	-553.405517578125	1059.423461914062	1510.03271484375	-153.7571716308594	1052.575805664062	1436.66357421875	-81.54927825927734	1025.61376953125	1167.821411132812	-60.54756164550781	1021.566528320312	1139.615234375	-156.7895812988281	1157.982055664062	911.1849365234375	-90.305419921875	1091.270874023438	896.4517822265625	-26.76652717590332	1040.200805664062	1093.269897460938	-45.27660369873047	1177.230590820312	722.5325927734375	-96.96809387207031	1189.403564453125	800.7999877929688	-72.2276611328125	1132.849975585938	797.103271484375	-23.65865325927734	1116.589721679688	1696.685913085938	-237.2738800048828	1114.836303710938	1727.369506835938	-448.0922546386719	1195.460693359375	1726.63037109375	-391.5433349609375	990.5383911132812	1699.8955078125	-317.05810546875	1058.52685546875	950.3804931640625	-504.4738464355469	1110.539672851562	948.8358154296875	-135.1706237792969	1205.5263671875	980.7205810546875	-217.2922058105469	1180.420166015625	998.1727905273438	-451.9723815917969	1090.758911132812	504.6037292480469	-465.4576721191406	1073.80322265625	640.0851440429688	-499.3650817871094	980.610595703125	30.98053932189941	-473.4000549316406	1003.543273925781	277.10400390625	-486.8289489746094	1203.314575195312	25.79032516479492	-411.5377502441406	1143.6484375	36.26051712036133	-394.1188049316406	1105.118041992188	27.20741271972656	-494.1567077636719	912.9237670898438	36.47700119018555	-418.4664611816406	1090.5732421875	512.0076293945312	-173.4089965820312	1125.476318359375	780.9075927734375	-137.2462463378906	962.3917236328125	35.67044830322266	-180.4759063720703	1058.135009765625	392.5706787109375	-168.9948120117188	1193.12841796875	30.09726715087891	-230.7602081298828	1128.318115234375	36.47096633911133	-258.3868103027344	1112.027221679688	30.90971183776855	-162.1042327880859	904.4967041015625	36.62461471557617	-222.8968811035156	1160.924194335938	713.8094482421875	-522.9501953125	
